<svg id="visual" viewBox="0 0 900 100" width="900" height="100" xmlns="http://www.w3.org/2000/svg" xmlns:xlink="http://www.w3.org/1999/xlink" version="1.1"><path d="M0 43L25 46.2C50 49.3 100 55.7 150 58.8C200 62 250 62 300 60.7C350 59.3 400 56.7 450 53.8C500 51 550 48 600 45.7C650 43.3 700 41.7 750 44.2C800 46.7 850 53.3 875 56.7L900 60L900 101L875 101C850 101 800 101 750 101C700 101 650 101 600 101C550 101 500 101 450 101C400 101 350 101 300 101C250 101 200 101 150 101C100 101 50 101 25 101L0 101Z" fill="#242424" stroke-linecap="round" stroke-linejoin="miter"></path></svg>